<?xml version="1.0" encoding="UTF-8" standalone="no"?>
<!-- Created with Inkscape (http://www.inkscape.org/) -->

<svg
   width="157.77669mm"
   height="127.04372mm"
   viewBox="0 0 157.77669 127.04372"
   version="1.1"
   id="svg1"
   xml:space="preserve"
   inkscape:version="1.3.2 (091e20ef0f, 2023-11-25)"
   sodipodi:docname="map-traced.svg"
   xmlns:inkscape="http://www.inkscape.org/namespaces/inkscape"
   xmlns:sodipodi="http://sodipodi.sourceforge.net/DTD/sodipodi-0.dtd"
   xmlns="http://www.w3.org/2000/svg"
   xmlns:svg="http://www.w3.org/2000/svg"><sodipodi:namedview
     id="namedview1"
     pagecolor="#ffffff"
     bordercolor="#000000"
     borderopacity="0.25"
     inkscape:showpageshadow="2"
     inkscape:pageopacity="0.0"
     inkscape:pagecheckerboard="0"
     inkscape:deskcolor="#d1d1d1"
     inkscape:document-units="mm"
     inkscape:zoom="1.3464692"
     inkscape:cx="253.25496"
     inkscape:cy="265.88058"
     inkscape:window-width="1920"
     inkscape:window-height="1080"
     inkscape:window-x="0"
     inkscape:window-y="297"
     inkscape:window-maximized="1"
     inkscape:current-layer="layer1" /><defs
     id="defs1" /><g
     inkscape:label="Layer 1"
     inkscape:groupmode="layer"
     id="layer1"
     transform="translate(-28.045695,-62.945874)"><path
       style="fill:#000000;stroke-width:0.873454"
       d="m 43.625618,181.39131 c -0.734103,-0.30188 -1.51407,-0.68397 -1.73326,-0.84909 -2.877967,-2.16806 -4.221747,-5.1129 -3.781794,-8.28767 0.447328,-3.22797 1.966086,-5.34812 4.848097,-6.76782 l 1.527837,-0.75263 5.841135,-0.0753 5.841134,-0.0753 V 122.88723 81.190956 h 15.057506 15.057508 l 4.643884,2.57314 c 2.554137,1.415226 4.903876,2.722066 5.221639,2.90409 0.550188,0.315161 0.840559,0.192291 6.086446,-2.575453 l 5.5087,-2.906404 33.25414,0.06009 33.25413,0.06009 0.7555,0.755512 0.7555,0.755513 0.0605,48.469076 c 0.0451,36.0556 -0.007,48.63385 -0.2046,49.11244 -0.14584,0.35384 -0.52509,0.84782 -0.84279,1.09773 -0.55837,0.43921 -1.00039,0.45437 -13.25103,0.45437 h -12.6734 l -6.29816,-3.50504 c -3.46399,-1.92777 -6.411,-3.50504 -6.54893,-3.50504 -0.13792,0 -3.26919,1.57727 -6.95838,3.50504 l -6.7076,3.50504 -38.689514,-0.005 -38.689504,-0.005 z M 155.68616,173.0404 c 1.73788,-0.48308 3.90588,-2.0312 5.08213,-3.62904 2.53426,-3.44253 2.57415,-8.3161 0.0964,-11.77624 -3.5925,-5.01688 -10.86258,-5.63723 -15.21298,-1.29811 -3.94981,3.93958 -4.00651,10.00904 -0.13146,14.07164 2.69601,2.82648 6.20109,3.73387 10.16592,2.63175 z m -5.25524,-2.7184 c -3.06346,-1.14555 -4.91845,-3.73241 -4.91845,-6.85896 0,-2.68448 1.40572,-5.02386 3.82356,-6.36308 1.11611,-0.61819 1.44188,-0.6853 3.31756,-0.68338 1.80414,0.002 2.23311,0.0835 3.23541,0.61556 2.5714,1.36509 3.91916,3.57663 3.91916,6.4309 0,2.86098 -1.36671,5.09739 -3.91916,6.41309 -1.39945,0.72138 -4.12574,0.94408 -5.45808,0.44587 z m -51.230904,-6.65434 c 3.096004,-0.65118 5.820244,-2.80619 7.182084,-5.68135 0.69824,-1.47415 0.74452,-1.72989 0.74452,-4.11398 0,-2.44942 -0.0306,-2.60531 -0.83804,-4.27537 -0.85995,-1.77856 -2.20817,-3.34042 -3.70803,-4.29562 -2.700663,-1.71995 -6.603998,-1.97181 -9.505271,-0.61333 -4.109426,1.92419 -6.49448,6.37768 -5.74772,10.73245 0.969193,5.65191 6.371051,9.40431 11.872457,8.2472 z m -2.980163,-2.77084 c -1.695401,-0.21664 -3.130451,-0.98383 -4.324532,-2.31193 -3.497554,-3.89012 -1.761198,-10.07057 3.274203,-11.6544 3.362012,-1.05749 7.161206,0.70284 8.686486,4.02478 0.7222,1.57294 0.68575,4.35306 -0.0775,5.91163 -1.42539,2.9106 -4.304677,4.4457 -7.558643,4.02992 z m 43.788817,-5.65423 0.42336,-0.82522 -1.76111,-1.77467 c -5.80051,-5.8452 -11.32293,-19.16731 -11.32293,-27.31509 v -2.02307 l 1.63066,0.47569 c 1.93359,0.56406 2.70072,0.40548 3.11729,-0.64438 0.23473,-0.59156 0.12889,-1.45158 -0.7212,-5.86044 -1.04297,-5.40918 -1.28907,-6.04127 -2.35214,-6.04127 -0.62123,0 -0.52144,-0.0968 -5.05823,4.90754 -2.1433,2.3642 -3.08722,3.57354 -3.08722,3.95533 0,0.74641 0.77759,1.68175 1.55628,1.87203 0.35155,0.0859 1.15916,0.30604 1.79468,0.48921 l 1.15551,0.33302 0.036,2.9455 c 0.0246,2.01107 0.19625,3.71533 0.5411,5.37208 1.82739,8.77933 7.91131,20.62013 12.38611,24.10642 0.60185,0.46888 1.12671,0.85252 1.16636,0.85252 0.0397,0 0.26262,-0.37134 0.49547,-0.8252 z m 22.41758,-8.26049 c 2.65167,-2.66741 3.97786,-4.16554 3.97786,-4.49359 0,-0.84753 -0.95308,-1.64749 -2.62907,-2.20669 l -1.58913,-0.53021 -0.0531,-3.91695 c -0.0346,-2.55184 -0.18954,-4.60157 -0.44462,-5.88132 -1.82263,-9.14419 -6.50363,-19.23275 -10.76807,-23.20751 l -1.22021,-1.13734 -0.44514,0.86765 -0.44513,0.86766 1.15854,1.22498 c 4.0015,4.231 8.39118,14.15983 9.74555,22.04305 0.4614,2.68565 0.6349,8.35447 0.25569,8.35447 -0.10721,0 -0.79945,-0.208 -1.53834,-0.46221 -1.70634,-0.58706 -2.15514,-0.58064 -2.81609,0.0403 -0.67787,0.63682 -0.6753,0.74803 0.15382,6.66715 1.0376,7.40741 1.05044,7.41082 6.65741,1.77057 z m -78.20092,2.67948 c 0.247152,-0.51829 0.316452,-0.89096 0.174472,-0.93829 -0.74965,-0.24988 -3.474014,-2.61946 -4.652836,-4.0469 -2.357941,-2.85526 -4.483088,-7.5278 -5.067092,-11.14098 -0.35551,-2.1995 -0.53873,-4.23289 -0.401426,-4.45506 0.07289,-0.11793 0.765511,-0.11244 1.637867,0.013 1.911278,0.27482 2.568781,0.10698 3.023169,-0.77171 0.352473,-0.68161 0.314775,-0.83967 -1.391123,-5.83196 -0.96438,-2.82225 -1.879489,-5.2502 -2.033575,-5.39544 -0.539535,-0.50856 -1.241665,-0.56733 -1.740658,-0.1457 -0.793557,0.67052 -6.273227,8.91894 -6.277478,9.44934 -0.0022,0.26885 0.204487,0.75375 0.459203,1.07757 0.456513,0.58037 0.654272,0.64018 3.292277,0.99579 l 1.097732,0.14797 v 1.6815 c 0,7.06329 4.325779,15.62816 9.72388,19.25289 0.792668,0.53227 1.509704,0.96776 1.593398,0.96776 0.08368,0 0.336681,-0.3869 0.56219,-0.85978 z m 17.23995,-12.60188 c 3.6e-4,-2.06546 0.11535,-4.69135 0.25554,-5.8353 0.67846,-5.5363 3.14957,-10.72004 7.14777,-14.99413 1.39024,-1.48617 4.56117,-4.21576 4.69985,-4.04571 0.0402,0.0493 0.50814,0.73828 1.03997,1.53121 1.07494,1.60267 1.79451,1.96955 2.7862,1.42055 0.74446,-0.41212 5.76366,-9.05223 5.78137,-9.95209 0.0154,-0.77961 -0.53665,-1.34534 -1.31268,-1.34534 -1.17678,0 -9.89527,1.16932 -10.48911,1.40678 -0.7203,0.28806 -1.20335,1.22447 -0.9868,1.91296 0.0853,0.2714 0.57078,1.10665 1.07872,1.85615 l 0.92353,1.36272 -1.0138,0.82583 c -1.97359,1.60763 -4.4366,4.0986 -5.85741,5.92389 -4.47058,5.7433 -6.133713,11.29554 -6.133713,20.47695 v 3.21093 h 1.039963 1.03995 z M 80.496861,112.78506 c 6.204798,-3.06659 7.551821,-11.1661 2.671528,-16.063605 -4.877773,-4.894958 -12.999356,-3.551138 -16.068441,2.658733 -0.764592,1.547052 -0.869567,1.974882 -0.953079,3.884302 -0.07721,1.76531 -0.0038,2.41627 0.413852,3.67141 0.990973,2.97787 3.431874,5.42156 6.385332,6.39261 1.050116,0.34526 1.87557,0.43354 3.585558,0.38347 2.032235,-0.0595 2.369877,-0.13845 3.96525,-0.92692 z m -7.090287,-2.3402 c -1.628581,-0.68659 -2.955812,-1.90648 -3.792878,-3.48611 -0.522536,-0.98607 -0.612795,-1.44353 -0.615562,-3.11986 -0.0038,-2.29989 0.526436,-3.64954 2.020889,-5.143997 2.118311,-2.118317 5.410459,-2.665938 8.144327,-1.354753 1.707506,0.818933 2.676918,1.814531 3.481753,3.5758 0.550093,1.2038 0.606649,1.55935 0.514613,3.23542 -0.118702,2.1619 -0.62555,3.3653 -1.993563,4.73332 -1.998707,1.9987 -5.195047,2.64138 -7.759579,1.56018 z m 64.918726,-2.06745 c 4.03849,-1.08039 6.8571,-4.14549 7.55507,-8.21577 0.74176,-4.325561 -1.51026,-8.617922 -5.56015,-10.597664 -1.71254,-0.837159 -1.83807,-0.862225 -4.31792,-0.862225 -2.48168,0 -2.60339,0.02436 -4.29263,0.859224 -3.38701,1.673955 -5.51535,4.806714 -5.70371,8.395457 -0.15472,2.947748 0.65464,5.277998 2.56909,7.396688 2.4623,2.72501 6.35529,3.93251 9.75025,3.02429 z m -3.73774,-2.69331 c -2.13999,-0.43792 -3.86932,-1.7469 -4.94265,-3.74127 -0.70509,-1.31013 -0.78263,-1.63889 -0.77914,-3.303724 0.006,-3.00752 1.3701,-5.235457 3.99154,-6.520661 1.77938,-0.872363 4.42309,-0.899105 6.15154,-0.06222 4.58449,2.219707 5.58954,8.262955 1.94169,11.675095 -1.83187,1.71349 -4.11233,2.41337 -6.36298,1.95279 z m -96.389316,14.38966 0.06016,-43.158179 0.666826,-1.4438 c 0.763606,-1.653342 2.187515,-3.090086 3.799052,-3.833294 0.946893,-0.436687 1.57367,-0.507968 5.067053,-0.57625 l 3.986498,-0.07792 v 44.621643 44.62166 h -2.868438 c -4.366885,0 -7.634509,0.81519 -9.757072,2.43415 -0.411141,0.31359 -0.807543,0.57017 -0.880892,0.57017 -0.07334,0 -0.106286,-19.42118 -0.07319,-43.15818 z"
       id="path1" /></g></svg>
