<?xml version="1.0" encoding="UTF-8" standalone="no"?>
<!-- Created with Inkscape (http://www.inkscape.org/) -->

<svg
   width="51.619312mm"
   height="42.204117mm"
   viewBox="0 0 51.619312 42.204117"
   version="1.1"
   id="svg1"
   inkscape:version="1.3.2 (091e20ef0f, 2023-11-25)"
   sodipodi:docname="map.svg"
   xmlns:inkscape="http://www.inkscape.org/namespaces/inkscape"
   xmlns:sodipodi="http://sodipodi.sourceforge.net/DTD/sodipodi-0.dtd"
   xmlns="http://www.w3.org/2000/svg"
   xmlns:svg="http://www.w3.org/2000/svg">
  <sodipodi:namedview
     id="namedview1"
     pagecolor="#ffffff"
     bordercolor="#000000"
     borderopacity="0.25"
     inkscape:showpageshadow="2"
     inkscape:pageopacity="0.0"
     inkscape:pagecheckerboard="0"
     inkscape:deskcolor="#d1d1d1"
     inkscape:document-units="mm"
     inkscape:zoom="3.2403367"
     inkscape:cx="51.537854"
     inkscape:cy="88.879653"
     inkscape:window-width="1920"
     inkscape:window-height="1080"
     inkscape:window-x="0"
     inkscape:window-y="297"
     inkscape:window-maximized="1"
     inkscape:current-layer="layer1" />
  <defs
     id="defs1">
    <inkscape:path-effect
       effect="fillet_chamfer"
       id="path-effect4"
       is_visible="true"
       lpeversion="1"
       nodesatellites_param="F,0,0,1,0,3.96875,0,1 @ F,0,0,1,0,1.7049607,0,1 @ F,0,0,1,0,1.6651245,0,1 @ F,0,0,1,0,3.96875,0,1"
       radius="15"
       unit="px"
       method="auto"
       mode="F"
       chamfer_steps="1"
       flexible="false"
       use_knot_distance="true"
       apply_no_radius="true"
       apply_with_radius="true"
       only_selected="false"
       hide_knots="false" />
    <marker
       style="overflow:visible"
       id="RoundedArrow"
       refX="0"
       refY="0"
       orient="auto-start-reverse"
       inkscape:stockid="Rounded arrow"
       markerWidth="1"
       markerHeight="1"
       viewBox="0 0 1 1"
       inkscape:isstock="true"
       inkscape:collect="always"
       preserveAspectRatio="xMidYMid">
      <path
         transform="scale(0.7)"
         d="m -0.21114562,-4.1055728 6.42229122,3.21114561 a 1,1 90 0 1 0,1.78885438 L -0.21114562,4.1055728 A 1.236068,1.236068 31.717474 0 1 -2,3 v -6 a 1.236068,1.236068 148.28253 0 1 1.78885438,-1.1055728 z"
         style="fill:context-stroke;fill-rule:evenodd;stroke:none"
         id="path8" />
    </marker>
    <marker
       style="overflow:visible"
       id="RoundedArrow-0"
       refX="0"
       refY="0"
       orient="auto-start-reverse"
       inkscape:stockid="Rounded arrow"
       markerWidth="1"
       markerHeight="1"
       viewBox="0 0 1 1"
       inkscape:isstock="true"
       inkscape:collect="always"
       preserveAspectRatio="xMidYMid">
      <path
         transform="scale(0.7)"
         d="m -0.21114562,-4.1055728 6.42229122,3.21114561 a 1,1 90 0 1 0,1.78885438 L -0.21114562,4.1055728 A 1.236068,1.236068 31.717474 0 1 -2,3 v -6 a 1.236068,1.236068 148.28253 0 1 1.78885438,-1.1055728 z"
         style="fill:context-stroke;fill-rule:evenodd;stroke:none"
         id="path8-6" />
    </marker>
    <marker
       style="overflow:visible"
       id="RoundedArrow-0-7"
       refX="0"
       refY="0"
       orient="auto-start-reverse"
       inkscape:stockid="Rounded arrow"
       markerWidth="1"
       markerHeight="1"
       viewBox="0 0 1 1"
       inkscape:isstock="true"
       inkscape:collect="always"
       preserveAspectRatio="xMidYMid">
      <path
         transform="scale(0.7)"
         d="m -0.21114562,-4.1055728 6.42229122,3.21114561 a 1,1 90 0 1 0,1.78885438 L -0.21114562,4.1055728 A 1.236068,1.236068 31.717474 0 1 -2,3 v -6 a 1.236068,1.236068 148.28253 0 1 1.78885438,-1.1055728 z"
         style="fill:context-stroke;fill-rule:evenodd;stroke:none"
         id="path8-6-9" />
    </marker>
    <marker
       style="overflow:visible"
       id="RoundedArrow-0-7-6"
       refX="0"
       refY="0"
       orient="auto-start-reverse"
       inkscape:stockid="Rounded arrow"
       markerWidth="1"
       markerHeight="1"
       viewBox="0 0 1 1"
       inkscape:isstock="true"
       inkscape:collect="always"
       preserveAspectRatio="xMidYMid">
      <path
         transform="scale(0.7)"
         d="m -0.21114562,-4.1055728 6.42229122,3.21114561 a 1,1 90 0 1 0,1.78885438 L -0.21114562,4.1055728 A 1.236068,1.236068 31.717474 0 1 -2,3 v -6 a 1.236068,1.236068 148.28253 0 1 1.78885438,-1.1055728 z"
         style="fill:context-stroke;fill-rule:evenodd;stroke:none"
         id="path8-6-9-9" />
    </marker>
  </defs>
  <g
     inkscape:label="Layer 1"
     inkscape:groupmode="layer"
     id="layer1"
     transform="translate(-35.913343,-33.357995)">
    <path
       id="rect1"
       style="stroke:#ffffff;stroke-width:1.44;stroke-dasharray:none;stroke-opacity:1"
       d="m 40.186329,37.457382 h 45.390826 a 1.7049607,1.7049607 45 0 1 1.704961,1.704961 v 34.36492 a 1.6651245,1.6651245 135 0 1 -1.665124,1.665124 H 40.186329 a 3.96875,3.96875 45 0 1 -3.96875,-3.96875 V 41.426132 a 3.96875,3.96875 135 0 1 3.96875,-3.96875 z"
       inkscape:path-effect="#path-effect4"
       inkscape:original-d="M 36.217579,37.457382 H 87.282116 V 75.192387 H 36.217579 Z"
       transform="matrix(0.98211737,0,0,0.98211737,1.1042494,1.0072368)" />
    <circle
       style="fill:none;fill-opacity:1;stroke:#ffffff;stroke-width:1;stroke-dasharray:none;stroke-opacity:1"
       id="path2-5-8"
       cx="75.319"
       cy="38.861305"
       r="3.0564232"
       transform="rotate(4.5045186)" />
    <circle
       style="fill:none;fill-opacity:1;stroke:#ffffff;stroke-width:1;stroke-dasharray:none;stroke-opacity:1"
       id="path2-5-8-4"
       cx="54.36441"
       cy="42.34771"
       r="3.0564232"
       transform="rotate(4.5045186)" />
    <circle
       style="fill:none;fill-opacity:1;stroke:#ffffff;stroke-width:1;stroke-dasharray:none;stroke-opacity:1"
       id="path2-5-8-4-6"
       cx="63.202431"
       cy="59.384037"
       r="3.0564232"
       transform="rotate(4.5045186)" />
    <path
       style="fill:none;stroke:#ffffff;stroke-width:0.7;stroke-opacity:1;marker-end:url(#RoundedArrow)"
       d="M 59.463793,59.561528 C 59.623961,57.52845 58.488371,52.702764 64.704034,48.546484"
       id="path4"
       sodipodi:nodetypes="cc" />
    <path
       style="fill:none;stroke:#ffffff;stroke-width:0.7;stroke-opacity:1;marker-end:url(#RoundedArrow-0)"
       d="m 53.740506,62.71963 c -2.298244,-1.193065 -4.283874,-4.689623 -3.78881,-8.399012"
       id="path4-6"
       sodipodi:nodetypes="cc" />
    <path
       style="fill:none;stroke:#ffffff;stroke-width:0.7;stroke-opacity:1;marker-end:url(#RoundedArrow-0-7)"
       d="m 76.702577,47.467815 c 1.771965,1.029806 5.33336,8.465844 3.944166,12.549354"
       id="path4-6-0"
       sodipodi:nodetypes="cc" />
    <path
       style="fill:none;stroke:#ffffff;stroke-width:0.7;stroke-opacity:1;marker-end:url(#RoundedArrow-0-7-6)"
       d="M 73.453616,64.63601 C 71.627512,63.705577 67.661113,56.477447 68.822799,52.323485"
       id="path4-6-0-7"
       sodipodi:nodetypes="cc" />
    <path
       id="rect4"
       style="fill:#000000;fill-opacity:1;stroke:#ffffff;stroke-width:1.52164;stroke-dasharray:none;stroke-opacity:1"
       d="m 40.225384,34.118815 h 2.820034 v 33.097234 h -2.486577 c -1.950401,-0.03133 -3.884678,1.389473 -3.884678,3.742292 V 37.840986 c 0.02362,-2.003936 1.332299,-3.678628 3.551221,-3.722173 z"
       sodipodi:nodetypes="cccccccc" />
    <circle
       style="fill:none;fill-opacity:1;stroke:#ffffff;stroke-width:1;stroke-dasharray:none;stroke-opacity:1"
       id="path2-5-8-4-6-1"
       cx="83.000389"
       cy="61.241413"
       r="3.0564232"
       transform="rotate(4.5045186)" />
    <path
       style="fill:#ffffff;fill-opacity:1;stroke:none;stroke-width:0.7;stroke-dasharray:none;stroke-opacity:1"
       d="m 65.798636,74.854984 6.235636,-3.274568 5.899978,3.278445 z"
       id="path5" />
    <path
       style="fill:#ffffff;fill-opacity:1;stroke:none;stroke-width:0.770882;stroke-dasharray:none;stroke-opacity:1"
       d="M 65.025552,36.93843 58.158498,40.544579 51.66109,36.93416 Z"
       id="path5-7" />
  </g>
</svg>
