<?xml version="1.0" encoding="UTF-8" standalone="no"?>
<!-- Created with Inkscape (http://www.inkscape.org/) -->

<svg
   width="130.29164mm"
   height="150.03636mm"
   viewBox="0 0 130.29164 150.03636"
   version="1.1"
   id="svg1"
   xml:space="preserve"
   sodipodi:docname="tifuun-mono.svg"
   inkscape:version="1.3.2 (091e20ef0f, 2023-11-25)"
   xmlns:inkscape="http://www.inkscape.org/namespaces/inkscape"
   xmlns:sodipodi="http://sodipodi.sourceforge.net/DTD/sodipodi-0.dtd"
   xmlns="http://www.w3.org/2000/svg"
   xmlns:svg="http://www.w3.org/2000/svg"><sodipodi:namedview
     id="namedview1"
     pagecolor="#ffffff"
     bordercolor="#000000"
     borderopacity="0.25"
     inkscape:showpageshadow="2"
     inkscape:pageopacity="0.0"
     inkscape:pagecheckerboard="0"
     inkscape:deskcolor="#d1d1d1"
     inkscape:document-units="mm"
     inkscape:zoom="1.6407164"
     inkscape:cx="275.18467"
     inkscape:cy="323.02963"
     inkscape:window-width="1920"
     inkscape:window-height="1080"
     inkscape:window-x="0"
     inkscape:window-y="297"
     inkscape:window-maximized="1"
     inkscape:current-layer="layer3" /><defs
     id="defs1" /><g
     inkscape:groupmode="layer"
     id="layer3"
     inkscape:label="Layer 3"
     transform="translate(30.875951,-7.0411794)"><path
       id="path1337"
       style="fill:#000000;stroke:none;stroke-width:0.898967;stroke-opacity:1"
       d="m 34.08319,14.816665 -58.424858,32.623337 0.111105,67.665118 10.379728,6.53706 48.19034,28.05204 58.096191,-33.90904 0.35037,-9.07077 -0.40979,-59.281128 z m 0.3514,3.265434 54.305216,30.565573 -54.519674,31.99702 -54.57858,-32.1045 z m -41.777812,41.391273 11.649935,6.80579 -0.05426,13.18214 -11.576037,-6.76031 z m 83.248668,0 -0.016,13.22762 -11.63805,6.80578 0.009,-13.22761 z m -68.977705,8.32456 11.637016,6.80578 -0.04134,13.18731 -11.581205,-6.76496 z m 54.705185,0.0532 -0.009,13.17491 -11.65355,6.81044 0.12712,-13.19972 z m -68.975631,8.08995 11.66182,7.01249 -0.12609,12.91446 -11.535214,-6.75515 z m 83.247631,0.015 v 13.15941 l -11.66234,6.79545 0.12661,-13.20075 z m -68.977185,8.25325 11.639083,6.80578 -0.103869,13.195578 -11.53573,-6.758238 z m 54.706225,0.0475 v 13.19299 l -11.65407,6.813018 0.0124,-13.247768 z m -68.977188,8.107 11.662337,7.00732 -0.126607,12.889138 -11.527462,-6.73654 z m 83.247628,0.1974 -0.007,12.962518 -11.6551,6.79183 0.12609,-13.184718 z m -68.976148,8.324038 11.662337,6.77892 -0.126607,12.93926 -11.534696,-6.75515 z m 54.705708,0 v 12.9651 l -11.66234,6.79494 0.12661,-13.16354 z" /></g><g
     inkscape:groupmode="layer"
     id="layer2"
     inkscape:label="Layer 2"><path
       id="path915"
       style="fill:#000000;stroke-width:0.898967"
       d="m 93.752111,106.18439 c -1.114776,0.0827 -4.601907,1.0945 -8.721072,2.6526 -15.499565,5.86279 -22.172557,17.47333 -15.163041,26.38249 0.803534,1.02165 0.692407,1.17457 -0.745145,1.0262 -3.412228,-0.35218 -7.83469,-2.3202 -11.300739,-5.0288 -3.682045,-2.87738 -2.59703,-0.28858 1.736502,4.1429 9.883737,10.10712 28.100977,14.47842 42.004044,10.07896 0.98159,-0.31061 1.97164,-0.5649 2.20013,-0.5649 1.70643,0 -2.4068,5.29461 -5.174208,6.66031 -0.523272,0.25823 -1.433056,0.79158 -2.021738,1.18508 -0.588682,0.39351 -1.190876,0.71578 -1.33838,0.71634 -0.147505,5.7e-4 -0.401579,0.16148 -0.564434,0.35771 -0.638305,0.7691 4.126446,-0.24957 7.19223,-1.53767 0.94496,-0.39703 1.82327,-0.72193 1.95158,-0.72193 0.37857,0 4.68447,-2.16146 5.76466,-2.8937 0.54684,-0.3707 1.09327,-0.67407 1.21388,-0.67407 0.53333,0 5.03089,-3.93737 6.29935,-5.51472 4.69453,-5.83773 5.2292,-12.75475 1.31468,-17.00407 -2.50123,-2.71516 7.37772,0.46371 11.58273,3.72712 2.73653,2.12375 3.29123,1.87766 1.47495,-0.65456 -0.41761,-0.58224 -0.92009,-1.29896 -1.11631,-1.59296 -3.46211,-5.18707 -15.15498,-11.46186 -23.30947,-12.50858 -0.98114,-0.12595 -2.42608,-0.3523 -3.21099,-0.50311 -3.937493,-0.75654 -12.176162,-0.19498 -16.887467,1.15116 -1.177366,0.33641 -2.327974,0.66415 -2.556906,0.72843 -0.589351,0.16551 -0.55165,-0.88167 0.07619,-2.11233 1.094922,-2.14623 3.892572,-4.33968 8.367546,-6.56044 1.415105,-0.70225 1.600297,-0.98706 0.93143,-0.93746 z m 3.61005,13.66532 c 2.431913,-0.0356 5.014829,0.27253 7.648409,1.01273 1.04655,0.29414 2.37903,0.66308 2.96107,0.81993 1.526,0.41124 1.59926,0.92569 0.0976,0.68522 -4.53665,-0.72648 -8.574329,0.41333 -6.36671,1.79736 2.12145,1.33001 2.53843,1.66376 3.53201,2.82775 4.25979,4.99049 -0.70532,11.24558 -10.332617,13.01726 -2.230141,0.41039 -7.661683,0.40427 -9.870844,-0.0112 -4.974524,-0.93542 -8.69993,-2.43551 -4.386318,-1.76623 3.663424,0.5684 8.263877,-0.60089 6.399695,-1.6264 -11.538887,-6.3478 -2.814612,-16.56433 10.317745,-16.75647 z"
       transform="translate(-29.104378,-89.096921)" /></g></svg>
